<?xml version="1.0" standalone="no"?>
<!DOCTYPE svg PUBLIC "-//W3C//DTD SVG 20010904//EN"
 "http://www.w3.org/TR/2001/REC-SVG-20010904/DTD/svg10.dtd">
<svg version="1.0" xmlns="http://www.w3.org/2000/svg"
 width="512.000000pt" height="512.000000pt" viewBox="0 0 512.000000 512.000000"
 preserveAspectRatio="xMidYMid meet">
<metadata>
Created by potrace 1.11, written by Peter Selinger 2001-2013
</metadata>
<g transform="translate(0.000000,512.000000) scale(0.100000,-0.100000)"
fill="#000000" stroke="none">
<path d="M2245 4532 c-89 -37 -201 -105 -261 -159 -17 -15 -51 -44 -75 -63
-24 -19 -56 -47 -71 -62 -16 -16 -31 -28 -34 -28 -3 0 -18 -12 -33 -27 -69
-68 -111 -90 -111 -58 0 8 -3 15 -8 15 -4 0 -16 16 -26 35 -11 19 -23 35 -27
35 -5 0 -16 15 -25 33 -27 52 -63 76 -115 77 -40 0 -51 -5 -82 -37 -61 -60
-50 -96 43 -144 25 -13 65 -35 88 -50 l44 -28 -39 -19 c-71 -37 -88 -47 -193
-117 -58 -38 -106 -73 -108 -77 -2 -4 -8 -8 -14 -8 -11 0 -91 -60 -96 -72 -2
-5 -10 -8 -18 -8 -8 0 -14 -4 -14 -9 0 -5 -8 -12 -17 -15 -10 -3 -29 -16 -43
-29 -14 -12 -52 -43 -86 -69 -33 -25 -70 -57 -82 -70 -83 -88 -109 -119 -140
-168 -20 -30 -43 -64 -53 -75 -25 -30 -89 -152 -89 -170 0 -8 -4 -15 -9 -15
-5 0 -11 -10 -14 -22 -2 -13 -15 -59 -28 -103 -21 -72 -24 -99 -24 -280 0
-125 4 -215 12 -240 6 -22 19 -67 28 -100 18 -66 16 -61 80 -198 25 -54 45
-102 45 -108 0 -5 3 -9 8 -9 4 0 16 -28 26 -63 11 -34 23 -67 27 -72 8 -11 23
-64 39 -143 5 -23 14 -51 20 -61 5 -11 10 -30 10 -43 0 -33 37 -108 54 -108
13 0 76 64 76 78 0 4 8 15 18 23 9 9 26 28 36 43 31 43 57 68 121 116 33 24
75 59 94 77 19 18 37 33 40 33 8 0 41 -82 41 -103 0 -9 4 -17 9 -17 5 0 12
-14 16 -30 4 -17 11 -30 16 -30 5 0 9 -11 9 -24 0 -13 7 -26 15 -30 8 -3 15
-15 15 -26 0 -11 3 -20 8 -20 7 0 25 -30 38 -62 3 -10 10 -18 15 -18 5 0 9 -5
9 -11 0 -12 107 -154 153 -203 186 -200 364 -354 482 -417 16 -9 46 -26 65
-37 19 -12 55 -31 80 -44 25 -13 47 -26 50 -29 3 -3 17 -9 33 -13 15 -3 27
-11 27 -16 0 -6 11 -10 24 -10 14 0 28 -4 31 -10 3 -5 13 -10 22 -10 8 0 29
-6 46 -13 113 -48 239 -80 422 -108 72 -11 155 -24 186 -29 72 -13 285 -13
363 0 156 26 308 40 419 40 132 0 190 14 237 57 14 13 28 23 32 23 5 0 8 7 8
15 0 8 4 15 9 15 4 0 23 39 40 88 30 82 52 135 72 174 5 10 9 25 9 33 0 9 7
18 15 21 8 4 15 12 15 19 0 13 29 74 40 85 11 11 66 138 102 235 43 115 71
243 103 475 29 214 13 433 -53 725 -10 46 -46 150 -74 215 -54 126 -72 164
-79 170 -4 3 -9 15 -13 28 -4 12 -12 22 -17 22 -5 0 -9 8 -9 19 0 10 -6 24
-14 30 -8 7 -21 26 -30 44 -16 31 -33 60 -49 81 -194 272 -208 290 -371 444
-142 136 -490 322 -602 322 -13 0 -25 4 -29 9 -6 10 21 41 36 41 5 0 32 11 61
25 28 14 57 25 62 25 16 1 56 36 56 49 0 6 -7 11 -15 11 -8 0 -15 5 -15 10 0
6 -8 10 -19 10 -10 0 -24 7 -31 15 -7 8 -18 15 -25 15 -14 0 -76 30 -85 41 -3
4 -15 9 -27 13 -13 4 -23 12 -23 17 0 5 -6 9 -13 9 -14 0 -193 105 -214 125
-15 15 -147 80 -202 100 -33 11 -84 15 -205 14 l-161 0 -90 -37z m-10 -512 c4
-6 13 -7 23 -1 9 5 55 7 102 4 47 -2 90 -4 95 -4 6 -1 21 0 35 1 22 1 89 -3
205 -13 17 -2 36 -7 44 -11 10 -7 12 -5 6 4 -6 9 -4 11 4 5 7 -4 31 -9 53 -11
29 -3 37 -1 32 8 -6 9 -3 9 9 0 9 -8 21 -11 27 -7 5 3 10 2 10 -2 0 -5 10 -9
23 -10 47 -2 77 -8 77 -15 0 -4 7 -4 17 -1 11 5 14 3 8 -6 -6 -10 -3 -11 13
-2 14 7 23 8 27 1 4 -6 11 -8 16 -5 5 4 9 1 9 -6 0 -7 3 -9 7 -6 3 4 13 1 21
-6 13 -10 14 -9 8 1 -9 15 39 -4 68 -27 13 -11 17 -12 12 -3 -7 11 -4 12 13 2
12 -6 32 -13 44 -16 12 -2 23 -8 25 -14 2 -6 7 -8 12 -5 4 3 13 -2 20 -10 7
-8 18 -15 26 -15 7 0 18 -8 23 -17 6 -11 11 -13 11 -5 0 10 3 10 14 0 8 -7 12
-15 10 -17 -9 -10 19 -29 33 -24 12 5 14 3 8 -8 -7 -11 -5 -11 10 1 10 8 16
11 13 5 -3 -5 0 -16 8 -23 9 -8 14 -9 14 -2 0 6 18 -3 40 -21 28 -23 37 -36
30 -44 -7 -8 -5 -12 5 -12 8 0 15 5 15 10 0 5 9 -1 19 -14 10 -13 17 -32 16
-42 -2 -9 0 -15 4 -12 5 3 12 -2 15 -10 4 -13 10 -14 26 -5 11 6 21 8 21 5 1
-3 2 -11 3 -17 1 -7 7 -12 14 -10 7 1 12 -2 12 -8 0 -5 5 -10 11 -10 5 0 7 6
3 13 -4 7 -3 9 2 4 5 -5 9 -14 9 -20 1 -7 7 -11 14 -9 7 1 10 -2 7 -7 -4 -5
-2 -12 3 -16 6 -3 8 -12 5 -19 -3 -8 0 -17 7 -22 8 -5 10 -3 4 7 -5 9 -5 11 2
4 17 -17 63 -105 63 -121 0 -9 5 -12 13 -8 7 5 6 0 -3 -11 -8 -10 -10 -16 -4
-12 11 6 51 -51 46 -67 -2 -5 2 -12 8 -16 6 -4 12 -21 12 -38 1 -17 5 -29 10
-26 5 3 7 2 6 -3 -1 -4 3 -18 10 -30 7 -13 10 -23 7 -23 -4 0 -3 -6 2 -12 8
-13 13 -33 15 -55 1 -7 4 -13 8 -13 4 0 7 -6 8 -12 2 -31 9 -49 22 -61 11 -9
11 -8 0 8 -14 19 -14 19 3 6 13 -10 14 -17 7 -26 -8 -10 -8 -15 1 -21 8 -5 10
-3 4 7 -5 8 -4 10 0 6 12 -10 16 -39 5 -32 -17 10 -3 -26 16 -41 10 -8 13 -12
5 -9 -8 5 -6 -3 5 -21 11 -15 14 -25 7 -21 -13 8 -12 -18 2 -30 4 -4 5 -2 0 6
-5 10 -4 12 3 7 9 -5 9 -13 0 -29 -10 -20 -10 -21 6 -8 9 8 16 10 14 5 -1 -5
2 -18 8 -29 6 -11 9 -30 8 -43 0 -12 3 -25 8 -28 5 -3 3 -13 -4 -22 -7 -9 -8
-13 -2 -9 7 4 14 -2 17 -14 5 -18 3 -18 -11 -7 -15 12 -15 11 -1 -12 11 -17
14 -32 8 -48 -6 -15 -5 -21 1 -17 6 3 10 2 10 -4 0 -5 -6 -12 -12 -14 -8 -3
-5 -6 5 -6 10 -1 15 -6 12 -11 -4 -6 -10 -8 -14 -5 -5 2 -6 -7 -3 -22 3 -17 1
-24 -6 -19 -6 3 -13 2 -16 -3 -4 -5 -2 -12 3 -16 6 -3 7 -13 4 -23 -6 -15 -5
-16 13 -2 18 14 18 14 5 -2 -15 -21 -35 -13 -26 9 4 12 3 13 -8 5 -8 -7 -18
-8 -23 -4 -5 4 2 -6 16 -23 14 -16 17 -23 8 -16 -21 15 -24 2 -5 -19 10 -12 9
-12 -6 0 -10 7 -16 19 -13 26 3 7 -2 12 -13 11 -9 0 -18 -10 -19 -21 -1 -13 2
-16 6 -9 5 9 12 6 21 -10 13 -19 12 -21 -1 -10 -8 7 -18 10 -21 7 -4 -4 -11 5
-16 19 -12 31 -28 42 -28 19 0 -9 9 -28 21 -42 l21 -25 -22 19 c-22 18 -33 11
-15 -9 5 -6 6 -21 1 -35 -6 -21 -7 -21 -8 -5 -1 11 -10 26 -20 32 -17 11 -19
10 -16 -7 2 -11 0 -22 -4 -24 -4 -3 -8 1 -9 9 -1 8 -3 22 -4 30 -1 8 -5 12 -9
10 -4 -3 -5 -14 -2 -24 3 -12 -6 -31 -24 -51 -15 -18 -27 -37 -25 -42 1 -5 -2
-7 -8 -3 -5 3 -10 1 -10 -6 0 -27 -11 1 -15 37 l-5 39 13 -30 c8 -18 16 -25
20 -18 4 6 3 14 -3 18 -5 3 -10 12 -10 18 0 7 4 6 10 -3 9 -13 10 -13 10 0 0
13 1 13 10 0 8 -12 9 -10 7 7 -2 12 -7 26 -11 30 -4 5 -6 1 -4 -7 2 -9 -5 -14
-22 -15 -21 0 -25 -5 -25 -30 -1 -17 -5 -29 -10 -27 -6 1 -9 12 -9 23 1 17
-10 18 -12 1 -2 -19 -17 -41 -24 -37 -5 3 -6 -5 -2 -17 5 -21 6 -21 14 -2 8
18 8 18 5 -1 -2 -14 -10 -20 -29 -20 -14 0 -30 -4 -35 -8 -4 -5 -3 -7 2 -5 6
1 10 -1 10 -7 0 -12 -26 -13 -42 -2 -7 5 -10 14 -6 20 4 6 1 7 -6 2 -9 -5 -10
-10 -2 -18 21 -21 -6 -45 -45 -41 -30 3 -41 -2 -64 -27 -20 -22 -30 -27 -35
-18 -5 6 -4 10 1 7 5 -3 17 3 26 13 16 17 16 18 -2 16 -10 -1 -16 -5 -14 -9 3
-4 -2 -8 -12 -8 -11 0 -15 -6 -11 -20 7 -28 -2 -25 -12 3 -5 13 -16 24 -24 24
-9 0 -13 -6 -10 -14 3 -8 0 -13 -7 -11 -7 2 -15 -4 -17 -12 -4 -13 -3 -13 6 0
10 13 11 13 11 0 1 -9 6 -5 14 10 l14 25 -1 -26 c-1 -17 -7 -26 -17 -24 -8 1
-23 -1 -32 -6 -21 -11 -50 -1 -41 15 4 7 1 7 -9 -1 -8 -7 -18 -9 -22 -5 -4 4
-7 3 -6 -3 5 -25 -2 -32 -30 -30 -17 1 -29 0 -26 -3 3 -3 0 -12 -6 -21 -11
-14 -10 -14 7 0 11 9 28 15 38 14 10 -2 21 3 23 10 3 7 15 12 26 10 24 -5 40
-18 18 -15 -26 4 -41 0 -36 -8 3 -5 -7 -8 -22 -7 -15 1 -37 -7 -51 -19 -13
-12 -21 -15 -17 -8 4 6 2 12 -3 12 -6 0 -11 -6 -11 -12 0 -10 -2 -10 -9 0 -6
10 -10 8 -14 -8 -3 -12 -10 -19 -16 -15 -6 3 -17 3 -23 -2 -7 -4 -21 -9 -32
-10 -16 -3 -17 -1 -5 14 13 17 13 17 -7 0 -23 -19 -39 -23 -28 -5 4 7 3 8 -5
4 -6 -4 -9 -11 -6 -16 3 -5 0 -12 -6 -16 -8 -4 -9 -3 -5 4 4 7 2 12 -3 12 -6
0 -11 -6 -12 -12 0 -7 -4 -4 -9 7 -7 17 -9 17 -9 3 -1 -10 -5 -18 -11 -18 -5
0 -7 8 -4 17 4 10 -3 5 -15 -12 -15 -22 -28 -30 -55 -30 -19 -1 -33 2 -30 6 2
4 -4 6 -13 5 -9 -2 -19 -9 -21 -17 -8 -25 -24 -39 -36 -32 -18 12 -35 12 -42
2 -3 -6 -12 -5 -22 3 -13 11 -15 10 -9 -4 10 -27 -1 -21 -16 8 -12 22 -15 24
-20 10 -4 -10 -3 -15 3 -11 16 10 11 -1 -7 -16 -11 -10 -14 -10 -9 -1 4 6 3
12 -3 12 -5 0 -12 -6 -14 -12 -3 -7 -6 -3 -6 10 -1 13 -5 20 -11 17 -5 -3 -10
-2 -10 3 0 12 -32 11 -50 -2 -8 -5 -12 -6 -8 -2 13 15 -24 35 -44 25 -12 -7
-20 -4 -26 8 -12 21 -46 27 -38 7 3 -9 1 -12 -4 -9 -6 3 -10 15 -10 25 0 10
-4 22 -10 25 -6 4 -7 -1 -3 -12 6 -15 4 -16 -9 -6 -8 7 -18 10 -21 6 -4 -3 -7
0 -7 8 0 11 -2 11 -10 -1 -7 -11 -10 -11 -10 -2 0 8 -5 10 -12 6 -7 -4 -4 3 7
16 12 14 14 20 5 15 -24 -15 -42 -15 -36 0 2 7 -1 21 -8 30 -11 15 -12 15 -12
-4 0 -11 5 -17 10 -14 5 3 6 1 2 -6 -4 -6 -12 -9 -17 -5 -5 3 -6 11 -2 17 5 9
2 8 -8 0 -13 -10 -16 -10 -17 2 -1 8 -3 21 -4 29 -1 8 -9 13 -20 11 -13 -3
-18 1 -16 13 2 9 -3 16 -9 14 -7 -1 -13 5 -13 13 0 8 -7 15 -15 15 -8 0 -15
-5 -15 -11 0 -5 4 -8 8 -5 5 3 9 -1 9 -9 0 -11 -4 -12 -14 -3 -8 6 -12 20 -11
32 2 16 -2 21 -21 21 -19 0 -24 7 -27 29 -2 15 -6 31 -10 35 -4 3 -4 -4 -1
-17 3 -13 1 -20 -5 -16 -5 4 -8 19 -6 34 4 23 1 27 -15 24 -13 -2 -17 1 -13
11 3 8 0 17 -6 21 -7 4 -8 3 -4 -4 4 -7 2 -12 -4 -12 -6 0 -8 -5 -4 -12 5 -9
2 -8 -9 1 -13 10 -15 17 -6 27 9 11 7 15 -5 20 -9 3 -14 9 -12 13 3 4 0 13 -6
21 -8 13 -9 12 -5 -2 6 -17 -16 -19 -30 -3 -4 4 -2 5 5 1 8 -5 12 1 11 21 0
25 -1 26 -9 8 -8 -19 -9 -19 -9 2 -1 25 -16 38 -26 23 -9 -15 -35 7 -29 25 3
7 0 16 -5 20 -6 3 -9 11 -6 16 4 5 -3 21 -14 35 -12 15 -21 23 -21 19 0 -5 7
-16 16 -26 12 -13 12 -19 3 -25 -7 -4 -10 -3 -6 3 4 6 0 16 -8 23 -8 7 -15 20
-15 29 0 9 -6 23 -12 30 -11 11 -10 12 1 6 10 -6 8 1 -4 23 -10 17 -22 29 -26
27 -4 -3 -10 2 -13 11 -4 10 -2 13 7 9 6 -4 3 1 -7 9 -15 12 -16 16 -5 17 10
0 10 2 1 6 -6 2 -10 9 -6 14 3 5 0 9 -6 9 -6 0 -8 5 -5 10 3 6 0 10 -7 10 -9
0 -9 3 2 10 12 8 12 10 -5 10 -17 0 -17 2 -5 10 11 7 11 10 2 10 -7 0 -10 5
-7 10 3 6 1 10 -4 10 -6 0 -11 14 -11 31 0 17 -4 38 -9 47 -5 9 -11 36 -15 60
-3 24 -9 49 -13 55 -5 7 -8 19 -8 27 -1 20 -13 95 -25 145 -5 22 -14 76 -20
120 -6 44 -18 109 -25 145 -8 36 -19 90 -26 120 -6 30 -15 118 -20 195 -11
173 -18 224 -35 250 -12 18 -11 23 4 36 17 15 47 19 237 36 39 3 71 7 73 8 9
8 242 3 247 -5z m-690 -60 c-3 -5 -20 -55 -36 -111 -31 -104 -46 -233 -28
-245 6 -4 5 -12 -3 -22 -10 -12 -10 -14 0 -8 12 7 13 5 16 -31 1 -10 5 -24 10
-32 6 -9 5 -12 -2 -7 -6 3 -13 2 -17 -4 -3 -5 -1 -10 5 -10 7 0 5 -7 -4 -16
-21 -21 -20 -30 2 -13 9 7 6 0 -8 -15 -14 -16 -19 -26 -13 -22 9 5 11 2 7 -8
-3 -9 -11 -13 -17 -9 -6 3 -7 1 -3 -5 4 -6 3 -19 -2 -29 -32 -62 -47 -128 -56
-248 -3 -33 -12 -73 -20 -90 -9 -16 -16 -35 -16 -41 0 -6 -8 -27 -18 -47 -26
-53 -45 -36 -38 34 3 30 8 90 11 134 4 44 11 99 16 123 5 24 9 117 8 208 0 91
4 171 9 177 4 7 9 25 10 41 1 16 9 37 17 46 8 9 15 21 15 27 0 15 33 77 43 81
4 2 7 10 7 17 0 8 6 20 13 27 6 7 23 29 37 48 13 19 29 40 35 47 12 15 29 17
20 3z m1875 -154 c0 -11 -19 -15 -25 -6 -3 5 1 10 9 10 9 0 16 -2 16 -4z m200
-140 c-7 -7 -15 -5 -25 7 -8 9 -10 12 -3 7 20 -16 31 -11 17 8 -13 15 -12 16
4 3 12 -10 15 -17 7 -25z m15 -16 c-3 -5 -14 -10 -23 -9 -14 0 -13 2 3 9 27
11 27 11 20 0z m-1564 -1283 c-10 -9 -11 -8 -5 6 3 10 9 15 12 12 3 -3 0 -11
-7 -18z m2006 8 c0 -8 -4 -12 -9 -9 -5 3 -6 10 -3 15 9 13 12 11 12 -6z
m-1927 -79 c0 -2 -7 -7 -16 -10 -8 -3 -12 -2 -9 4 6 10 25 14 25 6z m1640 -44
c0 -15 -2 -15 -10 -2 -13 20 -13 33 0 25 6 -3 10 -14 10 -23z m17 -4 c-3 -8
-6 -5 -6 6 -1 11 2 17 5 13 3 -3 4 -12 1 -19z m-1471 -155 c0 -10 5 -18 13
-18 8 0 16 -7 18 -15 3 -10 2 -11 -4 -4 -4 6 -15 10 -24 9 -11 -2 -15 4 -14
19 3 24 3 26 9 26 2 0 3 -8 2 -17z m711 -155 c-3 -8 -6 -5 -6 6 -1 11 2 17 5
13 3 -3 4 -12 1 -19z m-110 -20 c-3 -8 -6 -5 -6 6 -1 11 2 17 5 13 3 -3 4 -12
1 -19z m-237 -8 c0 -5 -2 -10 -4 -10 -3 0 -8 5 -11 10 -3 6 -1 10 4 10 6 0 11
-4 11 -10z"/>
<path d="M3276 3862 c-3 -5 1 -9 9 -9 8 0 12 4 9 9 -3 4 -7 8 -9 8 -2 0 -6 -4
-9 -8z"/>
<path d="M3474 3738 c-4 -7 -4 -10 1 -6 4 4 15 2 24 -5 14 -11 14 -10 2 6 -16
20 -18 21 -27 5z"/>
<path d="M3516 3712 c-3 -5 1 -9 9 -9 8 0 12 4 9 9 -3 4 -7 8 -9 8 -2 0 -6 -4
-9 -8z"/>
<path d="M3700 3550 c8 -5 15 -14 15 -20 0 -5 3 -10 8 -10 4 0 10 0 14 0 3 0
-2 9 -12 20 -10 11 -23 20 -29 20 -6 0 -4 -5 4 -10z"/>
<path d="M3872 3236 c1 -14 5 -23 9 -20 7 4 0 44 -7 44 -2 0 -3 -11 -2 -24z"/>
<path d="M2035 2451 c-3 -5 0 -13 6 -16 5 -4 8 -13 5 -21 -3 -7 -2 -15 2 -18
4 -3 8 4 9 14 1 11 -3 22 -8 25 -5 4 -7 11 -4 16 4 5 4 9 1 9 -3 0 -7 -4 -11
-9z"/>
<path d="M3940 2388 c0 -9 7 -19 16 -22 15 -6 15 -4 3 11 -7 10 -15 20 -16 22
-2 2 -3 -3 -3 -11z"/>
<path d="M3682 2220 c0 -14 2 -19 5 -12 2 6 2 18 0 25 -3 6 -5 1 -5 -13z"/>
<path d="M3637 2189 c4 -13 8 -18 11 -10 2 7 -1 18 -6 23 -8 8 -9 4 -5 -13z"/>
<path d="M3011 1954 c0 -11 3 -14 6 -6 3 7 2 16 -1 19 -3 4 -6 -2 -5 -13z"/>
<path d="M2895 1940 c-4 -6 -11 -7 -17 -4 -6 4 -5 -2 2 -15 13 -25 29 -20 27
9 -1 23 -3 24 -12 10z"/>
<path d="M2800 1918 c0 -6 3 -8 7 -5 3 4 11 2 18 -3 8 -7 12 -6 12 3 0 7 -9
14 -19 14 -10 1 -18 -3 -18 -9z"/>
</g>
</svg>
